HIERARCHY
ROOT Bip001_Pelvis
{
  OFFSET 34.4345 95.6767 -26.8758
  CHANNELS 6 Xposition Yposition Zposition Zrotation Xrotation Yrotation
  JOINT Bip001_Spine
  {
    OFFSET 1.4188e-005 10.2191 -0.0116013
    CHANNELS 3 Zrotation Xrotation Yrotation
    JOINT Bip001_L_Thigh
    {
      OFFSET 11.0458 -10.2192 0.0116197
      CHANNELS 3 Zrotation Xrotation Yrotation
      JOINT Bip001_L_Calf
      {
        OFFSET -0.707118 -44.0221 0.360014
        CHANNELS 3 Zrotation Xrotation Yrotation
        JOINT Bip001_L_Foot
        {
          OFFSET -0.651902 -40.5938 -3.56146
          CHANNELS 3 Zrotation Xrotation Yrotation
          JOINT Bip001_L_Toe0
          {
            OFFSET 0.0530839 -10.2181 13.1504
            CHANNELS 3 Zrotation Xrotation Yrotation
            End Site
            {
              OFFSET -1.02532e-005 0 7.55606
            }
          }
        }
      }
    }
    JOINT Bip001_R_Thigh
    {
      OFFSET -11.0458 -10.2191 0.0115893
      CHANNELS 3 Zrotation Xrotation Yrotation
      JOINT Bip001_R_Calf
      {
        OFFSET 0.706994 -44.0221 0.35984
        CHANNELS 3 Zrotation Xrotation Yrotation
        JOINT Bip001_R_Foot
        {
          OFFSET 0.651786 -40.5938 -3.5613
          CHANNELS 3 Zrotation Xrotation Yrotation
          JOINT Bip001_R_Toe0
          {
            OFFSET -0.0531479 -10.2181 13.1504
            CHANNELS 3 Zrotation Xrotation Yrotation
            End Site
            {
              OFFSET -1.02894e-005 0 7.55606
            }
          }
        }
      }
    }
    JOINT Bip001_Spine1
    {
      OFFSET 1.87041e-005 14.5736 1.08638
      CHANNELS 3 Zrotation Xrotation Yrotation
      JOINT Bip001_Spine2
      {
        OFFSET 2.24614e-005 14.5058 -1.69078
        CHANNELS 3 Zrotation Xrotation Yrotation
        JOINT Bip001_Neck
        {
          OFFSET 2.20278e-005 15.3945 -0.489414
          CHANNELS 3 Zrotation Xrotation Yrotation
          JOINT Bip001_L_Clavicle
          {
            OFFSET 6.06036 -0.000579998 0.00836775
            CHANNELS 3 Zrotation Xrotation Yrotation
            JOINT Bip001_L_UpperArm
            {
              OFFSET 11.5509 -0.0600302 0.00193952
              CHANNELS 3 Zrotation Xrotation Yrotation
              JOINT Bip001_L_Forearm
              {
                OFFSET 25.9523 0.0806089 -2.15551
                CHANNELS 3 Zrotation Xrotation Yrotation
                JOINT Bip001_L_Hand
                {
                  OFFSET 32.2475 0.153767 1.63968
                  CHANNELS 3 Zrotation Xrotation Yrotation
                  JOINT Bip001_L_Finger0
                  {
                    OFFSET 6.04639 -2.20976 5.90322
                    CHANNELS 3 Zrotation Xrotation Yrotation
                    End Site
                    {
                      OFFSET 4.22375 -1.43895 0.606485
                    }
                  }
                  JOINT Bip001_L_Finger1
                  {
                    OFFSET 11.0826 -0.704819 -0.198153
                    CHANNELS 3 Zrotation Xrotation Yrotation
                    End Site
                    {
                      OFFSET 6.20027 -0.397518 -0.0787166
                    }
                  }
                }
              }
            }
          }
          JOINT Bip001_R_Clavicle
          {
            OFFSET -6.06037 -0.000563197 0.00835105
            CHANNELS 3 Zrotation Xrotation Yrotation
            JOINT Bip001_R_UpperArm
            {
              OFFSET -11.5509 -0.0599978 0.00190698
              CHANNELS 3 Zrotation Xrotation Yrotation
              JOINT Bip001_R_Forearm
              {
                OFFSET -25.9523 0.0806822 -2.15589
                CHANNELS 3 Zrotation Xrotation Yrotation
                JOINT Bip001_R_Hand
                {
                  OFFSET -32.2475 0.153859 1.63989
                  CHANNELS 3 Zrotation Xrotation Yrotation
                  JOINT Bip001_R_Finger0
                  {
                    OFFSET -6.04641 -2.20976 5.90317
                    CHANNELS 3 Zrotation Xrotation Yrotation
                    End Site
                    {
                      OFFSET -4.22376 -1.43895 0.60647
                    }
                  }
                  JOINT Bip001_R_Finger1
                  {
                    OFFSET -11.0826 -0.704794 -0.198182
                    CHANNELS 3 Zrotation Xrotation Yrotation
                    End Site
                    {
                      OFFSET -6.20028 -0.397504 -0.0787333
                    }
                  }
                }
              }
            }
          }
          JOINT Bip001_Head
          {
            OFFSET 1.09673e-005 11.2744 2.05948
            CHANNELS 3 Zrotation Xrotation Yrotation
            End Site
            {
              OFFSET 2.89576e-005 20.8808 -2.77728e-005
            }
          }
        }
      }
    }
  }
}
MOTION
Frames:	16
Frame Time:	0.04
33.4123 95.3998 -31.2708 -2.67889 0.492459 7.13349 0.187094 2.55232 0.0322843 9.5427 -10.5988 8.44428 -1.52899 17.4279 -4.40232 2.59782 -7.6376 0.0724646 1.44993 -4.01003 -1.16002 -1.91233 -3.93148 -0.123754 0.759839 9.17278 -0.70756 -7.88144 -5.99344 -5.57207 3.04827 -10.0509 3.16617 0.364798 5.10474 0.0560732 0.372474 5.10475 0.0563542 3.13689 -4.95432 0.285144 -24.8793 7.90775 -6.39817 -54.1941 39.2093 5.98627 15.5363 -2.90327 -27.2808 9.3593 0.137392 -4.9829 -6.36111e-015 3.18055e-015 -0 -3.18055e-015 3.18056e-015 -0 17.8083 10.9779 17.8201 41.3443 -54.4783 -5.83385 -53.2182 -11.8543 114.979 -63.2189 1.9616 3.86095 -1.59028e-015 4.96962e-017 6.21202e-018 -7.95139e-016 4.96962e-017 -3.10601e-017 -6.80894 4.1105 2.80322 
33.5339 95.3668 -31.4722 -2.28342 1.01585 8.97793 0.0449888 2.6085 0.117427 8.58292 -11.801 6.85018 -0.93262 17.375 -4.87355 2.63207 -7.14709 0.061881 1.45121 -4.09884 -1.11433 -2.5058 -4.65384 -1.28659 1.12899 9.97959 -0.93623 -8.05281 -6.39319 -6.1725 3.05927 -10.0683 3.16682 0.0777535 5.21709 0.232009 0.0808287 5.21708 0.232906 3.04142 -6.03578 -0.512631 -25.3408 8.55916 -5.1165 -53.2834 39.2618 5.36381 15.7517 -3.09978 -27.2438 9.00347 0.24218 -4.83991 -1.76556e-031 -3.18055e-015 -3.18055e-015 -4.77083e-015 0 -0 17.1285 12.5358 19.8437 43.353 -52.3953 -0.555088 -54.0405 -12.1667 115.71 -63.6584 3.11167 3.15205 7.95139e-016 1.59028e-015 4.96962e-017 7.95139e-016 2.38542e-015 1.49088e-016 -6.9977 5.72286 2.1305 
33.332 95.3383 -31.7274 -2.5993 1.91392 11.3711 0.0130496 2.59435 0.225537 8.63174 -13.8296 5.23765 -0.991487 17.9057 -5.50559 2.4992 -6.96704 0.050905 1.41888 -4.00071 -1.12116 -2.27939 -5.29929 -1.5816 1.4739 9.78884 -1.19588 -8.46394 -6.12588 -7.90046 3.06401 -10.07 3.15769 0.0158857 5.18874 0.451198 0.0158856 5.18876 0.451199 3.38559 -7.09143 -1.88169 -26.1371 8.98761 -3.66841 -52.3353 39.1939 4.85952 15.7176 -3.20937 -27.608 9.37189 0.562296 -4.76409 -1.59028e-015 0 3.18055e-015 -3.18055e-015 0 3.18055e-015 15.9382 14.1968 22.392 47.5552 -47.9863 7.91276 -54.7136 -11.4824 113.453 -63.7427 2.7505 4.01177 1.98785e-016 -3.18055e-015 9.93923e-017 1.98785e-016 -3.18056e-015 9.93923e-017 -7.37204 7.21737 1.07931 
33.0057 95.3322 -32.0038 -2.94848 2.94439 13.7902 -0.072362 2.54698 0.395916 8.89142 -15.7573 4.47115 -1.33593 17.9333 -6.88946 2.87871 -6.26832 0.0340446 1.68921 -4.22289 -1.40145 -2.00798 -6.12814 -1.26791 1.9313 9.6245 -1.54117 -8.95934 -5.75727 -10.1292 3.05862 -9.99378 3.04891 -0.16261 5.0934 0.796249 -0.16261 5.09341 0.796247 4.63523 -7.50412 -3.59795 -27.5994 8.77632 -2.95692 -51.6527 38.6135 5.1825 15.0976 -3.96164 -28.4875 10.0826 1.01849 -4.77307 1.59028e-015 9.54166e-015 -3.18055e-015 -1.59028e-015 1.27222e-014 -3.18055e-015 14.0072 15.0739 24.6366 51.3488 -42.4389 18.0247 -57.1319 -9.09484 110.483 -61.5432 3.3 3.49325 0 0 -9.93923e-017 -3.97569e-016 -3.18056e-015 -2.98177e-016 -8.24246 8.78134 0.079242 
32.6901 95.3315 -32.2492 -3.27686 3.69674 16.0511 -0.137654 2.53185 0.41864 8.89401 -17.4365 4.33807 -0.924982 18.1269 -8.92216 1.95209 -6.30768 0.0267016 1.27866 -3.61792 -1.05904 -1.71723 -6.80564 -1.11802 2.19359 9.5669 -1.91921 -9.27537 -5.4473 -11.9621 3.03581 -9.87849 2.99145 -0.294041 5.06259 0.844707 -0.294255 5.06261 0.845343 5.76504 -6.85832 -4.83658 -28.5617 7.54521 -2.30833 -51.4013 38.0513 6.07054 14.8647 -4.21651 -29.8636 10.0085 0.769757 -4.85966 -1.59028e-015 0 3.18055e-015 1.59028e-015 -3.18056e-015 -0 10.8891 14.6591 28.4806 53.6997 -33.9655 31.8387 -59.7585 -1.27019 100.922 -61.7092 2.02564 3.10614 -3.97569e-016 -9.54166e-015 -0 -5.96354e-016 -6.36111e-015 1.98785e-016 -8.54444 9.52594 -0.654009 
32.3336 95.3933 -32.2986 -3.68105 3.98502 18.2181 -0.048853 2.67367 0.525815 8.98249 -18.6381 2.51798 -1.156 18.0593 -8.94645 0.666708 -6.47865 0.0232499 0.906986 -2.78083 -0.860757 -1.21061 -6.76495 -1.13359 2.10858 8.70987 -2.21487 -9.44268 -4.8098 -13.5447 3.01061 -9.75025 2.87011 -0.12305 5.34756 1.05728 -0.122823 5.34744 1.0565 5.13925 -7.40776 -6.24114 -28.9546 7.27118 -0.257802 -49.7519 38.5535 5.53815 14.7429 -3.96822 -30.8092 9.02896 0.669147 -4.88916 -1.59028e-015 -6.36111e-015 3.18055e-015 -3.18055e-015 -6.36111e-015 3.18055e-015 7.61014 14.7231 31.5085 63.2966 -33.9164 42.2985 -58.5359 0.519872 98.6432 -60.2586 0.659261 3.24686 -1.19271e-015 3.18055e-015 1.39149e-015 -1.19271e-015 0 1.39149e-015 -7.28002 11.3148 -2.49419 
31.9711 95.4257 -32.2161 -4.32191 4.53719 20.9961 -0.101265 2.75679 0.547863 9.34401 -20.0564 2.62443 -1.07396 17.7678 -11.365 0.255185 -6.23149 0.0211996 0.90705 -2.6272 -0.929871 -0.443488 -6.79305 -0.85372 2.11306 7.66103 -2.40296 -9.77236 -4.02996 -15.8501 2.97508 -9.56592 2.7089 -0.229335 5.51205 1.10249 -0.229336 5.51216 1.10249 7.97048 -7.48447 -8.6768 -31.932 5.75291 1.53673 -47.9452 38.6886 5.01206 14.886 -3.56829 -30.7987 8.69206 0.682338 -4.75717 -7.06225e-031 6.36111e-015 6.36111e-015 -1.76556e-031 3.18056e-015 3.18055e-015 8.02874 15.0502 29.3711 67.7069 -37.053 45.5572 -59.0719 -6.37543 105.662 -45.8202 -2.98692 2.91371 0 0 -7.95139e-016 7.95139e-016 -3.18056e-015 -0 -9.73469 11.5291 -3.30129 
32.1816 95.5284 -32.0674 -3.33317 4.6395 21.6487 -0.349598 2.62713 0.273369 8.12205 -18.7823 4.40479 0.099901 15.9752 -13.4767 -0.742628 -5.84218 0.0194349 0.984976 -2.13521 -1.18809 -1.435 -6.53913 -1.50864 2.43441 8.44169 -2.63797 -9.80601 -4.51908 -15.5931 2.96561 -9.52228 2.6638 -0.712867 5.25246 0.563675 -0.712876 5.25251 0.563692 12.0991 -4.54313 -10.3103 -33.5369 2.13209 -0.0202227 -51.7259 36.952 8.21299 14.7747 -2.79292 -30.4398 10.3351 1.3417 -4.07502 3.18055e-015 -9.54166e-015 3.18055e-015 1.59028e-015 -1.59028e-014 3.18055e-015 6.85905 12.1538 28.7744 60.9599 -32.8252 43.1097 -55.0269 -4.129 104.629 -51.7948 0.588022 2.68125 1.59028e-015 0 7.95139e-016 1.19271e-015 0 7.95139e-016 -13.1874 10.7016 -2.66467 
32.392 95.6564 -31.8795 -2.07399 3.37664 17.5716 -0.208939 2.52755 0.0646969 7.74933 -15.2633 7.40077 0.554647 14.7453 -12.419 -1.8499 -6.40888 0.0180446 0.565988 -1.36346 -0.855379 -2.35309 -5.61916 -2.20655 1.92291 9.20987 -2.14901 -9.06374 -5.31564 -11.9241 2.93322 -9.51743 2.75684 -0.423962 5.05472 0.147734 -0.422249 5.05476 0.142614 8.41038 -3.91338 -8.17524 -31.1617 2.64781 0.322296 -55.4958 38.2395 12.5056 15.7802 -1.28598 -29.9533 10.2061 1.71084 -3.98155 4.77083e-015 6.36111e-015 -0 6.36111e-015 3.18056e-015 -1.59028e-015 6.75155 11.192 30.5716 58.2355 -26.7343 39.3573 -60.0483 0.0206874 99.9008 -58.4371 -2.43226 1.95994 -7.95139e-016 0 3.97569e-016 -3.97569e-016 6.36111e-015 -1.19271e-015 -11.2317 13.2628 -1.88483 
32.3935 95.7333 -31.7507 -1.76893 2.57685 11.8005 -0.0133358 2.597 0.351196 8.39991 -12.6455 7.29291 -0.60446 14.1389 -7.08835 -2.02112 -6.99805 0.0173398 0.352965 -1.18584 -0.531093 -2.50781 -5.53615 -1.01209 1.4169 9.00845 -1.42387 -8.30195 -5.61161 -8.80805 2.83302 -9.2869 2.76269 -0.041564 5.19463 0.692108 -0.042875 5.19435 0.70149 3.12312 -7.37404 -5.64721 -28.026 6.90277 2.04907 -54.7768 41.3278 11.5965 17.5172 4.01301 -27.3485 5.70332 0.745454 -6.21331 1.59028e-015 3.18055e-015 1.59028e-015 -1.59028e-015 3.18056e-015 3.18055e-015 9.61604 14.9131 32.0389 51.6949 -19.7304 40.0215 -60.0037 6.3117 89.766 -58.902 0.0371372 2.58104 7.95139e-016 0 -0 7.95139e-016 3.18056e-015 7.95139e-016 -6.76977 15.7214 -2.19629 
32.5322 95.6856 -31.5217 -1.34924 1.72223 8.14696 0.185959 2.58197 0.9234 7.72943 -10.5441 5.71169 -0.679275 13.6624 -3.36882 -1.0964 -6.76498 0.0286828 0.496869 -2.19467 -0.485671 -3.11036 -5.2652 -1.88053 0.988219 9.68232 -0.54277 -7.66387 -6.45149 -6.01668 2.74612 -9.0839 2.75975 0.341402 5.16617 1.84272 0.336376 5.16633 1.84117 1.32207 -8.00022 -5.51466 -27.754 8.06781 1.11446 -53.3812 46.2707 10.4644 18.3477 6.16735 -24.821 0.552834 0.468567 -7.07458 1.32417e-031 9.54166e-015 -7.95139e-016 1.32417e-031 3.18056e-015 -2.38542e-015 10.6395 15.422 31.98 41.8017 -9.44427 38.7939 -56.1223 6.87971 74.9131 -50.8854 -0.480889 4.9078 1.59028e-015 3.18055e-015 1.59028e-015 3.18055e-015 0 3.18055e-015 -4.02802 15.6868 -3.43314 
32.5595 95.6896 -31.2777 -0.905967 0.892014 7.05237 0.193754 2.4727 1.1117 7.14403 -8.78891 6.44173 -0.156864 12.8479 -3.56783 -0.611063 -6.24887 0.0303266 0.813693 -2.76315 -0.706902 -3.59294 -4.47721 -2.61109 0.976584 10.1664 -0.572396 -7.32805 -7.08302 -4.47043 2.65918 -8.8211 2.6743 0.33884 4.94869 2.22381 0.339579 4.94868 2.22106 2.58269 -8.7838 -6.5147 -28.7463 8.62013 0.725368 -54.3455 46.8461 10.3777 19.7531 6.47569 -23.6749 -1.04519 1.23469 -5.20966 -0 -9.54166e-015 -0 1.59028e-015 -9.54167e-015 7.95139e-016 9.53446 16.2997 32.0275 37.1446 -1.95787 36.9909 -54.0781 8.50969 65.5658 -46.657 -2.89794 7.08036 -3.53112e-031 -6.36111e-015 -3.18055e-015 -0 -3.18056e-015 -0 -4.10276 15.6364 -4.06191 
32.4199 95.8096 -30.981 -0.285198 0.397008 6.63934 -0.049916 2.35751 0.975555 6.85419 -6.6881 7.97712 0.0881416 10.5376 -4.40845 -1.21009 -5.57387 0.0346776 0.844717 -2.55651 -0.810862 -3.70784 -3.57533 -1.99348 0.912132 9.92081 -0.491278 -7.29144 -7.10657 -4.57335 2.60746 -8.6534 2.60325 -0.140215 4.71381 1.95566 -0.140215 4.71381 1.95566 3.91804 -8.69295 -6.64508 -28.2278 8.39873 0.628587 -53.7554 43.7889 8.24987 19.0109 6.64659 -23.8707 1.80164 2.00349 -3.2344 -3.18055e-015 0 7.95139e-016 -4.77083e-015 0 -0 11.4986 17.5821 32.9257 32.4615 2.99373 32.5831 -52.2661 9.43021 59.9089 -41.1124 -0.953072 6.95967 3.18055e-015 -9.54166e-015 -3.18055e-015 -3.18055e-015 -9.54167e-015 -0 -3.4713 14.5778 -4.1891 
32.5213 95.8591 -30.6795 0.644309 -0.534656 6.64782 -0.202933 2.33676 0.532685 6.0399 -4.23562 9.69395 0.227024 8.17862 -5.81517 -1.07209 -4.51863 0.0413159 1.04129 -2.84411 -1.01783 -4.47376 -2.42049 -2.28772 0.922602 10.1845 -0.590508 -7.09064 -7.70345 -3.81614 2.55904 -8.52757 2.58773 -0.413475 4.66666 1.07766 -0.420994 4.66673 1.07535 3.37819 -8.22478 -6.02695 -27.0346 7.92431 1.35101 -53.0854 41.2039 6.32835 17.5336 4.5463 -24.1416 6.70479 2.27106 -3.41803 3.53112e-031 1.27222e-014 -1.59028e-015 8.82782e-031 1.59028e-014 -3.18055e-015 14.684 18.3305 33.3767 29.0241 9.30621 26.3878 -49.9869 10.4615 56.5994 -37.0126 -2.36029 4.53056 8.82781e-032 1.59028e-015 -3.18055e-015 1.76556e-031 3.18056e-015 -3.18055e-015 -2.02863 13.2992 -4.26032 
32.2944 95.8972 -30.4403 0.863856 -1.19463 6.35983 -0.159187 2.33952 0.388301 6.19231 -2.69992 10.054 -0.251644 6.96112 -5.78959 -1.60769 -4.37186 0.0466903 0.706414 -2.62304 -0.711726 -4.51227 -1.45928 -1.98932 0.938988 9.77465 -0.669176 -7.04731 -7.81466 -3.58158 2.52223 -8.3951 2.52 -0.343931 4.67598 0.782995 -0.337448 4.67601 0.786657 3.35853 -8.20798 -6.06194 -27.1635 7.76596 1.82136 -51.875 40.0855 4.23073 15.4186 -1.52021 -24.5718 8.84387 2.03568 -3.59676 -3.18055e-015 6.36111e-015 -3.18055e-015 -3.18055e-015 6.36111e-015 -3.18055e-015 15.8054 18.4972 32.4283 29.2146 15.9581 21.7355 -47.1278 10.7922 52.6285 -29.5462 -4.24594 5.57816 -1.59028e-015 -7.95139e-016 -6.36111e-015 1.59028e-015 2.38542e-015 -3.18055e-015 -1.58517 12.3977 -4.45069 
32.0147 95.9074 -30.2368 0.929542 -1.68594 6.07412 -0.0973253 2.36565 0.423729 6.12879 -1.76178 9.2752 -0.119647 6.24962 -5.00177 -1.64079 -3.92412 0.0528109 0.720668 -2.7946 -0.693872 -4.38508 -0.801557 -2.05882 0.85574 9.53187 -0.661291 -6.97737 -7.96623 -3.32024 2.46688 -8.24809 2.49344 -0.209112 4.73054 0.851301 -0.210857 4.73053 0.850669 3.63197 -8.15251 -6.68869 -27.9715 7.66326 1.36537 -50.0285 39.1146 1.97463 13.9285 -5.34877 -24.8745 10.051 0.210188 -4.08015 0 0 -3.18055e-015 6.36111e-015 -3.18056e-015 -6.36111e-015 16.8272 18.7018 31.2905 30.5679 21.8882 16.4348 -46.274 13.2067 49.1405 -23.8137 -5.0672 6.05975 7.95139e-016 9.93923e-016 -0 7.95139e-016 -3.97569e-016 -3.18055e-015 -1.44992 11.723 -5.04266 
